<?xml version="1.0" encoding="utf-8"?>
<svg fill="#000000" width="20" height="21" viewBox="0 0 24 24" id="bitcoin-square" data-name="Flat Color" xmlns="http://www.w3.org/2000/svg" class="icon flat-color">
  <rect id="primary" x="2" y="2" width="20" height="20" rx="2" style="fill: rgb(0, 0, 0);"></rect>
  <path id="secondary" d="M14.94,11.73A3,3,0,0,0,15.5,10,3,3,0,0,0,13,7.05V7a1,1,0,0,0-2,0H9A1,1,0,0,0,9,9v6a1,1,0,0,0,0,2h2a1,1,0,0,0,2,0,3,3,0,0,0,1.94-5.27ZM12.5,9a1,1,0,0,1,0,2H11V9Zm.5,6H11V13h2a1,1,0,0,1,0,2Z" style="fill: rgb(44, 169, 188);"></path>
</svg>
